# xmcd
#
# Track frame offsets: 
#        150
#        13715
#        28133
#        41223
#        60375
#        78517
#        93546
#        105870
#        119332
#        145241
#        159236
#        178015
#        192473
#
# Disc length: 2752 seconds
#
# Revision: 0
# Processed by: cddbd v1.5.1PL0 Copyright (c) Steve Scherf et al.
# Submitted via: ExactAudioCopy v0.95a5
#
DISCID=a80abe0d
DTITLE=IBMA Showcase Artist Compilation - IBMA Showcase Artist Compila
DTITLE=tion
DYEAR=2004
DGENRE=Bluegrass
TTITLE0=Tear Drops in My Eyes, The Grascals
TTITLE1=My First Mistake, Alecia Nugent
TTITLE2=I Won't Go Away, Cherryholmes
TTITLE3=Mohave River, Chris Stuart and Backcountry
TTITLE4=Sadie's Song, Adrienne Young
TTITLE5=Long Way to Fall, Cadillac Sky
TTITLE6=Get in the Boat, The Jeanette Williams Band
TTITLE7=Coal Black Gold, Dean Sapp and Harford Express
TTITLE8=The Storm, Liz Meyer
TTITLE9=In The Mood, Hickory Project
TTITLE10=Mono County Jail, The Biscuit Burners
TTITLE11=All This Time, The Jackstraws
TTITLE12=Yonder Over Canaan, The Coal Porters
EXTD=
EXTT0=
EXTT1=
EXTT2=
EXTT3=
EXTT4=
EXTT5=
EXTT6=
EXTT7=
EXTT8=
EXTT9=
EXTT10=
EXTT11=
EXTT12=
PLAYORDER=
